<mxfile host="app.diagrams.net" modified="2023-09-19T21:37:33.849Z" agent="Mozilla/5.0 (X11; Linux x86_64) AppleWebKit/537.36 (KHTML, like Gecko) Chrome/117.0.0.0 Safari/537.36" etag="GhX7x0oi9VsB9S6I8lZT" version="21.7.5" type="github">
  <diagram id="C5RBs43oDa-KdzZeNtuy" name="Page-1">
    <mxGraphModel dx="1855" dy="614" grid="1" gridSize="10" guides="1" tooltips="1" connect="1" arrows="1" fold="1" page="1" pageScale="1" pageWidth="827" pageHeight="1169" math="0" shadow="0">
      <root>
        <mxCell id="WIyWlLk6GJQsqaUBKTNV-0" />
        <mxCell id="WIyWlLk6GJQsqaUBKTNV-1" parent="WIyWlLk6GJQsqaUBKTNV-0" />
        <mxCell id="WIyWlLk6GJQsqaUBKTNV-2" value="" style="rounded=0;html=1;jettySize=auto;orthogonalLoop=1;fontSize=11;endArrow=block;endFill=0;endSize=8;strokeWidth=1;shadow=0;labelBackgroundColor=none;edgeStyle=orthogonalEdgeStyle;" parent="WIyWlLk6GJQsqaUBKTNV-1" source="WIyWlLk6GJQsqaUBKTNV-3" target="WIyWlLk6GJQsqaUBKTNV-6" edge="1">
          <mxGeometry relative="1" as="geometry" />
        </mxCell>
        <mxCell id="WIyWlLk6GJQsqaUBKTNV-3" value="Usuario" style="rounded=1;whiteSpace=wrap;html=1;fontSize=12;glass=0;strokeWidth=1;shadow=0;" parent="WIyWlLk6GJQsqaUBKTNV-1" vertex="1">
          <mxGeometry x="190" y="660" width="120" height="40" as="geometry" />
        </mxCell>
        <mxCell id="fj_9nTCWASsDrIXxVjkm-7" value="" style="edgeStyle=orthogonalEdgeStyle;rounded=0;orthogonalLoop=1;jettySize=auto;html=1;" edge="1" parent="WIyWlLk6GJQsqaUBKTNV-1" source="WIyWlLk6GJQsqaUBKTNV-6" target="fj_9nTCWASsDrIXxVjkm-3">
          <mxGeometry relative="1" as="geometry" />
        </mxCell>
        <mxCell id="fj_9nTCWASsDrIXxVjkm-12" style="edgeStyle=orthogonalEdgeStyle;rounded=0;orthogonalLoop=1;jettySize=auto;html=1;exitX=0.5;exitY=0;exitDx=0;exitDy=0;entryX=0.5;entryY=1;entryDx=0;entryDy=0;" edge="1" parent="WIyWlLk6GJQsqaUBKTNV-1" source="WIyWlLk6GJQsqaUBKTNV-6" target="WIyWlLk6GJQsqaUBKTNV-7">
          <mxGeometry relative="1" as="geometry" />
        </mxCell>
        <mxCell id="fj_9nTCWASsDrIXxVjkm-13" style="edgeStyle=orthogonalEdgeStyle;rounded=0;orthogonalLoop=1;jettySize=auto;html=1;exitX=0.5;exitY=0;exitDx=0;exitDy=0;entryX=0.5;entryY=1;entryDx=0;entryDy=0;" edge="1" parent="WIyWlLk6GJQsqaUBKTNV-1" source="WIyWlLk6GJQsqaUBKTNV-6" target="fj_9nTCWASsDrIXxVjkm-5">
          <mxGeometry relative="1" as="geometry" />
        </mxCell>
        <mxCell id="fj_9nTCWASsDrIXxVjkm-14" style="edgeStyle=orthogonalEdgeStyle;rounded=0;orthogonalLoop=1;jettySize=auto;html=1;exitX=0.5;exitY=0;exitDx=0;exitDy=0;entryX=0.5;entryY=1;entryDx=0;entryDy=0;" edge="1" parent="WIyWlLk6GJQsqaUBKTNV-1" source="WIyWlLk6GJQsqaUBKTNV-6" target="fj_9nTCWASsDrIXxVjkm-2">
          <mxGeometry relative="1" as="geometry" />
        </mxCell>
        <mxCell id="fj_9nTCWASsDrIXxVjkm-15" style="edgeStyle=orthogonalEdgeStyle;rounded=0;orthogonalLoop=1;jettySize=auto;html=1;exitX=0.5;exitY=0;exitDx=0;exitDy=0;entryX=0.5;entryY=1;entryDx=0;entryDy=0;" edge="1" parent="WIyWlLk6GJQsqaUBKTNV-1" source="WIyWlLk6GJQsqaUBKTNV-6" target="fj_9nTCWASsDrIXxVjkm-4">
          <mxGeometry relative="1" as="geometry" />
        </mxCell>
        <mxCell id="WIyWlLk6GJQsqaUBKTNV-6" value="LOGIN" style="rhombus;whiteSpace=wrap;html=1;shadow=0;fontFamily=Helvetica;fontSize=12;align=center;strokeWidth=1;spacing=6;spacingTop=-4;fillColor=#1ba1e2;fontColor=#ffffff;strokeColor=#006EAF;" parent="WIyWlLk6GJQsqaUBKTNV-1" vertex="1">
          <mxGeometry x="212.5" y="580" width="75" height="55" as="geometry" />
        </mxCell>
        <mxCell id="fj_9nTCWASsDrIXxVjkm-44" value="" style="edgeStyle=orthogonalEdgeStyle;rounded=0;orthogonalLoop=1;jettySize=auto;html=1;entryX=0.5;entryY=1;entryDx=0;entryDy=0;entryPerimeter=0;" edge="1" parent="WIyWlLk6GJQsqaUBKTNV-1" source="WIyWlLk6GJQsqaUBKTNV-7" target="fj_9nTCWASsDrIXxVjkm-43">
          <mxGeometry relative="1" as="geometry">
            <mxPoint x="-125" y="450" as="targetPoint" />
          </mxGeometry>
        </mxCell>
        <mxCell id="WIyWlLk6GJQsqaUBKTNV-7" value="Automatización de Procesos Internos" style="rounded=1;whiteSpace=wrap;html=1;fontSize=12;glass=0;strokeWidth=1;shadow=0;fillColor=#d5e8d4;strokeColor=#82b366;" parent="WIyWlLk6GJQsqaUBKTNV-1" vertex="1">
          <mxGeometry x="-185" y="470" width="120" height="40" as="geometry" />
        </mxCell>
        <mxCell id="fj_9nTCWASsDrIXxVjkm-26" value="" style="edgeStyle=orthogonalEdgeStyle;rounded=0;orthogonalLoop=1;jettySize=auto;html=1;" edge="1" parent="WIyWlLk6GJQsqaUBKTNV-1" source="fj_9nTCWASsDrIXxVjkm-2" target="fj_9nTCWASsDrIXxVjkm-25">
          <mxGeometry relative="1" as="geometry" />
        </mxCell>
        <mxCell id="fj_9nTCWASsDrIXxVjkm-34" style="edgeStyle=orthogonalEdgeStyle;rounded=0;orthogonalLoop=1;jettySize=auto;html=1;exitX=0.5;exitY=0;exitDx=0;exitDy=0;entryX=0.5;entryY=1;entryDx=0;entryDy=0;" edge="1" parent="WIyWlLk6GJQsqaUBKTNV-1" source="fj_9nTCWASsDrIXxVjkm-2" target="fj_9nTCWASsDrIXxVjkm-33">
          <mxGeometry relative="1" as="geometry" />
        </mxCell>
        <mxCell id="fj_9nTCWASsDrIXxVjkm-2" value="Gestión de Recursos Humanos" style="rounded=1;whiteSpace=wrap;html=1;fontSize=12;glass=0;strokeWidth=1;shadow=0;fillColor=#f8cecc;strokeColor=#b85450;" vertex="1" parent="WIyWlLk6GJQsqaUBKTNV-1">
          <mxGeometry x="-10" y="470" width="120" height="40" as="geometry" />
        </mxCell>
        <mxCell id="fj_9nTCWASsDrIXxVjkm-3" value="Gestión Financiera" style="rounded=1;whiteSpace=wrap;html=1;fontSize=12;glass=0;strokeWidth=1;shadow=0;fillColor=#ffe6cc;strokeColor=#d79b00;" vertex="1" parent="WIyWlLk6GJQsqaUBKTNV-1">
          <mxGeometry x="190" y="470" width="120" height="40" as="geometry" />
        </mxCell>
        <mxCell id="fj_9nTCWASsDrIXxVjkm-4" value="Colaboración con el Sector Público" style="rounded=1;whiteSpace=wrap;html=1;fontSize=12;glass=0;strokeWidth=1;shadow=0;" vertex="1" parent="WIyWlLk6GJQsqaUBKTNV-1">
          <mxGeometry x="360" y="470" width="120" height="40" as="geometry" />
        </mxCell>
        <mxCell id="fj_9nTCWASsDrIXxVjkm-5" value="Sistema de Reporte y Comunicación" style="rounded=1;whiteSpace=wrap;html=1;fontSize=12;glass=0;strokeWidth=1;shadow=0;" vertex="1" parent="WIyWlLk6GJQsqaUBKTNV-1">
          <mxGeometry x="530" y="470" width="120" height="40" as="geometry" />
        </mxCell>
        <mxCell id="fj_9nTCWASsDrIXxVjkm-19" value="Selección de Módulo" style="text;html=1;align=center;verticalAlign=middle;resizable=0;points=[];autosize=1;strokeColor=none;fillColor=none;" vertex="1" parent="WIyWlLk6GJQsqaUBKTNV-1">
          <mxGeometry y="540" width="130" height="30" as="geometry" />
        </mxCell>
        <mxCell id="fj_9nTCWASsDrIXxVjkm-20" value="Selección de Módulo" style="text;html=1;align=center;verticalAlign=middle;resizable=0;points=[];autosize=1;strokeColor=none;fillColor=none;" vertex="1" parent="WIyWlLk6GJQsqaUBKTNV-1">
          <mxGeometry x="360" y="540" width="130" height="30" as="geometry" />
        </mxCell>
        <mxCell id="fj_9nTCWASsDrIXxVjkm-36" style="edgeStyle=orthogonalEdgeStyle;rounded=0;orthogonalLoop=1;jettySize=auto;html=1;exitX=0.5;exitY=0;exitDx=0;exitDy=0;entryX=0.5;entryY=1;entryDx=0;entryDy=0;" edge="1" parent="WIyWlLk6GJQsqaUBKTNV-1" source="fj_9nTCWASsDrIXxVjkm-25" target="fj_9nTCWASsDrIXxVjkm-35">
          <mxGeometry relative="1" as="geometry" />
        </mxCell>
        <mxCell id="fj_9nTCWASsDrIXxVjkm-25" value="Evaluar desempeño de los empleados" style="rounded=0;whiteSpace=wrap;html=1;fillColor=#f8cecc;strokeColor=#b85450;" vertex="1" parent="WIyWlLk6GJQsqaUBKTNV-1">
          <mxGeometry x="-40" y="340" width="70" height="76" as="geometry" />
        </mxCell>
        <mxCell id="fj_9nTCWASsDrIXxVjkm-27" value="KPIs" style="text;html=1;align=center;verticalAlign=middle;resizable=0;points=[];autosize=1;strokeColor=none;fillColor=none;" vertex="1" parent="WIyWlLk6GJQsqaUBKTNV-1">
          <mxGeometry x="-4" y="418" width="50" height="30" as="geometry" />
        </mxCell>
        <mxCell id="fj_9nTCWASsDrIXxVjkm-38" value="" style="edgeStyle=orthogonalEdgeStyle;rounded=0;orthogonalLoop=1;jettySize=auto;html=1;" edge="1" parent="WIyWlLk6GJQsqaUBKTNV-1" source="fj_9nTCWASsDrIXxVjkm-33" target="fj_9nTCWASsDrIXxVjkm-37">
          <mxGeometry relative="1" as="geometry" />
        </mxCell>
        <mxCell id="fj_9nTCWASsDrIXxVjkm-33" value="Asignar Tareas&amp;nbsp;" style="rounded=0;whiteSpace=wrap;html=1;fillColor=#f8cecc;strokeColor=#b85450;" vertex="1" parent="WIyWlLk6GJQsqaUBKTNV-1">
          <mxGeometry x="60" y="340" width="60" height="76" as="geometry" />
        </mxCell>
        <mxCell id="fj_9nTCWASsDrIXxVjkm-47" style="edgeStyle=orthogonalEdgeStyle;rounded=0;orthogonalLoop=1;jettySize=auto;html=1;entryX=0.5;entryY=1;entryDx=0;entryDy=0;" edge="1" parent="WIyWlLk6GJQsqaUBKTNV-1" source="fj_9nTCWASsDrIXxVjkm-35" target="fj_9nTCWASsDrIXxVjkm-45">
          <mxGeometry relative="1" as="geometry">
            <Array as="points">
              <mxPoint x="-5" y="250" />
              <mxPoint x="45" y="250" />
            </Array>
          </mxGeometry>
        </mxCell>
        <mxCell id="fj_9nTCWASsDrIXxVjkm-35" value="Comentario" style="ellipse;whiteSpace=wrap;html=1;fillColor=#f8cecc;strokeColor=#b85450;" vertex="1" parent="WIyWlLk6GJQsqaUBKTNV-1">
          <mxGeometry x="-40" y="280" width="70" height="40" as="geometry" />
        </mxCell>
        <mxCell id="fj_9nTCWASsDrIXxVjkm-48" style="edgeStyle=orthogonalEdgeStyle;rounded=0;orthogonalLoop=1;jettySize=auto;html=1;entryX=0.5;entryY=1;entryDx=0;entryDy=0;" edge="1" parent="WIyWlLk6GJQsqaUBKTNV-1" source="fj_9nTCWASsDrIXxVjkm-37" target="fj_9nTCWASsDrIXxVjkm-45">
          <mxGeometry relative="1" as="geometry">
            <Array as="points">
              <mxPoint x="90" y="250" />
              <mxPoint x="45" y="250" />
            </Array>
          </mxGeometry>
        </mxCell>
        <mxCell id="fj_9nTCWASsDrIXxVjkm-37" value="Plazo de Entrega" style="rounded=0;whiteSpace=wrap;html=1;fillColor=#f8cecc;strokeColor=#b85450;" vertex="1" parent="WIyWlLk6GJQsqaUBKTNV-1">
          <mxGeometry x="60" y="280" width="60" height="36" as="geometry" />
        </mxCell>
        <mxCell id="fj_9nTCWASsDrIXxVjkm-46" style="edgeStyle=orthogonalEdgeStyle;rounded=0;orthogonalLoop=1;jettySize=auto;html=1;entryX=0;entryY=0.5;entryDx=0;entryDy=0;" edge="1" parent="WIyWlLk6GJQsqaUBKTNV-1" source="fj_9nTCWASsDrIXxVjkm-40" target="fj_9nTCWASsDrIXxVjkm-45">
          <mxGeometry relative="1" as="geometry">
            <Array as="points">
              <mxPoint x="-125" y="185" />
            </Array>
          </mxGeometry>
        </mxCell>
        <mxCell id="fj_9nTCWASsDrIXxVjkm-40" value="Selecciona" style="swimlane;fontStyle=0;childLayout=stackLayout;horizontal=1;startSize=30;horizontalStack=0;resizeParent=1;resizeParentMax=0;resizeLast=0;collapsible=1;marginBottom=0;whiteSpace=wrap;html=1;fillColor=#d5e8d4;strokeColor=#82b366;" vertex="1" parent="WIyWlLk6GJQsqaUBKTNV-1">
          <mxGeometry x="-190" y="270" width="130" height="170" as="geometry" />
        </mxCell>
        <mxCell id="fj_9nTCWASsDrIXxVjkm-41" value="Seguimiento de Proyectos" style="text;strokeColor=#82b366;fillColor=#d5e8d4;align=left;verticalAlign=middle;spacingLeft=4;spacingRight=4;overflow=hidden;points=[[0,0.5],[1,0.5]];portConstraint=eastwest;rotatable=0;whiteSpace=wrap;html=1;" vertex="1" parent="fj_9nTCWASsDrIXxVjkm-40">
          <mxGeometry y="30" width="130" height="50" as="geometry" />
        </mxCell>
        <mxCell id="fj_9nTCWASsDrIXxVjkm-42" value="Gestión de Recursos y activos" style="text;strokeColor=#82b366;fillColor=#d5e8d4;align=left;verticalAlign=middle;spacingLeft=4;spacingRight=4;overflow=hidden;points=[[0,0.5],[1,0.5]];portConstraint=eastwest;rotatable=0;whiteSpace=wrap;html=1;" vertex="1" parent="fj_9nTCWASsDrIXxVjkm-40">
          <mxGeometry y="80" width="130" height="40" as="geometry" />
        </mxCell>
        <mxCell id="fj_9nTCWASsDrIXxVjkm-43" value="Aprobación de documentos internos" style="text;strokeColor=#82b366;fillColor=#d5e8d4;align=left;verticalAlign=middle;spacingLeft=4;spacingRight=4;overflow=hidden;points=[[0,0.5],[1,0.5]];portConstraint=eastwest;rotatable=0;whiteSpace=wrap;html=1;" vertex="1" parent="fj_9nTCWASsDrIXxVjkm-40">
          <mxGeometry y="120" width="130" height="50" as="geometry" />
        </mxCell>
        <mxCell id="fj_9nTCWASsDrIXxVjkm-45" value="Registro y almacenamiento&amp;nbsp; de datos" style="rounded=0;whiteSpace=wrap;html=1;fontStyle=1;fillColor=#1ba1e2;fontColor=#ffffff;strokeColor=#006EAF;" vertex="1" parent="WIyWlLk6GJQsqaUBKTNV-1">
          <mxGeometry x="-40" y="160" width="169" height="50" as="geometry" />
        </mxCell>
        <mxCell id="fj_9nTCWASsDrIXxVjkm-49" value="Sistema de Facturas" style="rounded=0;whiteSpace=wrap;html=1;" vertex="1" parent="WIyWlLk6GJQsqaUBKTNV-1">
          <mxGeometry x="230" y="390" width="80" height="50" as="geometry" />
        </mxCell>
        <mxCell id="fj_9nTCWASsDrIXxVjkm-52" value="Sistema de Facturas" style="rounded=0;whiteSpace=wrap;html=1;" vertex="1" parent="WIyWlLk6GJQsqaUBKTNV-1">
          <mxGeometry x="230" y="320" width="80" height="50" as="geometry" />
        </mxCell>
      </root>
    </mxGraphModel>
  </diagram>
</mxfile>
